<?xml version="1.0" standalone="no"?><!DOCTYPE svg PUBLIC "-//W3C//DTD SVG 1.1//EN" "http://www.w3.org/Graphics/SVG/1.1/DTD/svg11.dtd"><svg t="1778048386964" class="icon" viewBox="0 0 1024 1024" version="1.1" xmlns="http://www.w3.org/2000/svg" p-id="5848" xmlns:xlink="http://www.w3.org/1999/xlink" width="200" height="200"><path d="M269.714286 301.714286a68.571429 68.571429 0 1 0 137.142857 0 68.571429 68.571429 0 1 0-137.142857 0zM900.571429 0H123.428571c-20.228571 0-36.571429 16.342857-36.571428 36.571429v754.285714c0 20.228571 16.342857 36.571429 36.571428 36.571428h777.142858c20.228571 0 36.571429-16.342857 36.571428-36.571428V36.571429c0-20.228571-16.342857-36.571429-36.571428-36.571429z m-36.571429 754.285714H160V73.142857h704v681.142857zM617.142857 301.714286a68.571429 68.571429 0 1 0 137.142857 0 68.571429 68.571429 0 1 0-137.142857 0z m285.942857 635.428571H120.914286c-18.857143 0-34.057143 16.342857-34.057143 36.571429v41.142857c0 5.028571 3.771429 9.142857 8.457143 9.142857h833.257143c4.685714 0 8.457143-4.114286 8.457142-9.142857v-41.142857c0.114286-20.228571-15.085714-36.571429-33.942857-36.571429zM685.714286 507.428571H338.285714c-5.028571 0-9.142857 4.114286-9.142857 9.142858v68.571428c0 5.028571 4.114286 9.142857 9.142857 9.142857h347.428572c5.028571 0 9.142857-4.114286 9.142857-9.142857v-68.571428c0-5.028571-4.114286-9.142857-9.142857-9.142858z" p-id="5849"></path></svg>